M48
; DRILL file {KiCad 7.0.5} date Tue Oct  3 09:16:18 2023
; FORMAT={-:-/ absolute / metric / decimal}
; #@! TF.CreationDate,2023-10-03T09:16:18-05:00
; #@! TF.GenerationSoftware,Kicad,Pcbnew,7.0.5
; #@! TF.FileFunction,MixedPlating,1,2
FMAT,2
METRIC
; #@! TA.AperFunction,Plated,PTH,ViaDrill
T1C0.400
; #@! TA.AperFunction,Plated,PTH,ComponentDrill
T2C0.800
; #@! TA.AperFunction,Plated,PTH,ComponentDrill
T3C0.900
; #@! TA.AperFunction,Plated,PTH,ComponentDrill
T4C0.950
; #@! TA.AperFunction,Plated,PTH,ComponentDrill
T5C1.000
; #@! TA.AperFunction,Plated,PTH,ComponentDrill
T6C1.100
; #@! TA.AperFunction,Plated,PTH,ComponentDrill
T7C1.200
; #@! TA.AperFunction,Plated,PTH,ComponentDrill
T8C1.300
; #@! TA.AperFunction,Plated,PTH,ComponentDrill
T9C2.200
; #@! TA.AperFunction,Plated,PTH,ComponentDrill
T10C2.500
; #@! TA.AperFunction,NonPlated,NPTH,ComponentDrill
T11C3.500
%
G90
G05
T1
X114.596Y-64.0
X121.412Y-60.329
X146.03Y-109.97
X146.03Y-109.97
X151.1Y-105.92
X161.7Y-98.25
T2
X99.624Y-89.154
X103.124Y-89.154
X123.92Y-93.15
X123.92Y-97.8
X134.08Y-93.15
X134.08Y-97.8
X145.93Y-82.65
X156.09Y-82.65
T3
X125.57Y-87.49
X128.11Y-87.49
X130.5Y-87.48
X133.04Y-87.48
T4
X156.798Y-108.712
X159.298Y-108.712
X161.798Y-108.712
X168.482Y-108.712
X170.982Y-108.712
X173.482Y-108.712
X180.166Y-108.712
X182.666Y-108.712
X185.166Y-108.712
T5
X148.5Y-87.18
X148.5Y-102.42
X151.04Y-87.18
X151.04Y-102.42
X153.58Y-87.18
X153.58Y-102.42
X156.12Y-87.18
X156.12Y-102.42
X158.66Y-87.18
X158.66Y-102.42
X161.2Y-87.18
X161.2Y-102.42
X163.74Y-87.18
X163.74Y-102.42
X166.28Y-87.18
X166.28Y-102.42
X168.82Y-87.18
X168.82Y-102.42
X171.36Y-87.18
X171.36Y-102.42
X173.9Y-87.18
X173.9Y-102.42
X176.44Y-87.18
X176.44Y-102.42
X178.98Y-87.18
X178.98Y-102.42
X181.52Y-87.18
X181.52Y-102.42
X183.54Y-78.07
X184.06Y-87.18
X184.06Y-102.42
X186.04Y-73.07
X188.54Y-78.07
T6
X96.52Y-99.06
X106.68Y-99.06
T7
X108.712Y-45.72
X111.252Y-45.72
X113.284Y-103.43
X113.792Y-45.72
X115.824Y-103.43
X116.332Y-45.72
X118.364Y-103.43
X118.872Y-45.72
X121.412Y-45.72
X123.952Y-45.72
X126.492Y-45.72
X129.032Y-45.72
X131.572Y-45.72
X134.112Y-45.72
X136.652Y-45.72
X139.192Y-45.72
X141.732Y-45.72
X144.272Y-45.72
X146.812Y-45.72
T8
X99.1Y-108.204
X104.1Y-108.204
T9
X96.52Y-45.72
X137.16Y-109.22
X187.96Y-45.72
T10
X103.213Y-45.72
X103.213Y-76.721
X178.211Y-76.721
X178.212Y-45.72
T11
X115.824Y-87.63
T0
M30
